<svg xmlns="http://www.w3.org/2000/svg" viewBox="0 0 64 64">
  <!-- Trem laranja -->
  <g fill="#FF7A1A" stroke="#FF7A1A" stroke-width="2" stroke-linejoin="round">
    <path d="M18 14 Q18 10 22 10 H42 Q46 10 46 14 V44 Q46 48 42 48 H22 Q18 48 18 44 Z"/>
  </g>
  <!-- Janelas (recortes brancos/transparentes) -->
  <g fill="#FFFFFF">
    <rect x="22" y="16" width="8" height="10" rx="1.5"/>
    <rect x="34" y="16" width="8" height="10" rx="1.5"/>
  </g>
  <!-- Divisória -->
  <line x1="18" y1="34" x2="46" y2="34" stroke="#FFFFFF" stroke-width="2" stroke-linecap="round"/>
  <!-- Faróis -->
  <circle cx="24" cy="42" r="2" fill="#FFFFFF"/>
  <circle cx="40" cy="42" r="2" fill="#FFFFFF"/>
  <!-- Pernas -->
  <line x1="24" y1="48" x2="22" y2="53" stroke="#FF7A1A" stroke-width="3" stroke-linecap="round"/>
  <line x1="40" y1="48" x2="42" y2="53" stroke="#FF7A1A" stroke-width="3" stroke-linecap="round"/>
  <!-- Trilhos brancos -->
  <line x1="6" y1="57" x2="58" y2="57" stroke="#FFFFFF" stroke-width="3" stroke-linecap="round"/>
  <line x1="14" y1="61" x2="20" y2="61" stroke="#FFFFFF" stroke-width="2" stroke-linecap="round"/>
  <line x1="29" y1="61" x2="35" y2="61" stroke="#FFFFFF" stroke-width="2" stroke-linecap="round"/>
  <line x1="44" y1="61" x2="50" y2="61" stroke="#FFFFFF" stroke-width="2" stroke-linecap="round"/>
</svg>
